<?xml version="1.0" standalone="no"?><svg xmlns="http://www.w3.org/2000/svg" viewBox="0 0 1440 320"><path fill="#ffd700" fill-opacity="0.5" d="M0,32L40,58.7C80,85,160,139,240,170.7C320,203,400,213,480,218.7C560,224,640,224,720,218.7C800,213,880,203,960,181.3C1040,160,1120,128,1200,112C1280,96,1360,96,1400,96L1440,96L1440,320L1400,320C1360,320,1280,320,1200,320C1120,320,1040,320,960,320C880,320,800,320,720,320C640,320,560,320,480,320C400,320,320,320,240,320C160,320,80,320,40,320L0,320Z"></path></svg>